<svg width="256" height="256" viewBox="0 0 256 256" fill="none" xmlns="http://www.w3.org/2000/svg">
<rect width="256" height="256" fill="#002D4F"/>
<path d="M67.6145 101.47C65.3681 100.4 62.7452 103.07 63.853 105.31C64.1264 105.792 64.5771 106.155 65.1142 106.326L75.5098 109.556L88.0467 113.353L88.0073 113.443C63.4852 106.343 37.0889 101.082 28.8521 99.8705C28.7272 99.8589 28.6012 99.8782 28.486 99.9268C28.3709 99.9753 28.2701 100.051 28.1932 100.148C28.1163 100.245 28.0657 100.359 28.0462 100.48C28.0266 100.6 28.0388 100.724 28.0814 100.839L37.645 122.642C38.174 123.65 38.9926 124.486 40.0009 125.048L59.7368 133.155C60.7014 133.557 61.7231 133.815 62.767 133.918H62.9028C63.7392 133.918 72.0636 133.808 74.2486 133.872C74.2486 133.872 59.6142 134.627 47.0466 137.029C45.8424 137.345 45.1068 138.253 45.5797 139.209L49.0828 146.974C49.1617 147.143 49.275 147.293 49.4158 147.417C49.5566 147.541 49.722 147.636 49.9017 147.696C49.9017 147.696 59.2157 150.23 64.8908 152.47C64.8954 152.474 64.8991 152.478 64.9016 152.483C64.9042 152.488 64.9055 152.494 64.9055 152.5C64.9055 152.506 64.9042 152.511 64.9016 152.516C64.8991 152.522 64.8954 152.526 64.8908 152.53C64.8908 152.53 63.6472 152.197 62.4474 152.005C61.7606 151.89 61.064 151.84 60.3674 151.856L56.9606 155.128C56.927 155.159 56.9024 155.198 56.8895 155.241C56.8765 155.284 56.8755 155.329 56.8867 155.373C56.8978 155.416 56.9207 155.456 56.9529 155.488C56.9852 155.52 57.0256 155.543 57.07 155.555C58.8139 155.757 60.5815 155.631 62.2766 155.184C63.6918 154.819 64.9871 154.107 66.0381 153.114L68.5998 150.285C68.6799 150.199 68.7332 150.092 68.7533 149.977C68.7735 149.862 68.7597 149.744 68.7137 149.637C67.5532 147.303 62.9116 145.52 60.1441 145.421L53.1377 146.322C61.287 144.214 68.7531 142.934 68.7531 142.934C76.1973 141.654 76.7228 140.621 80.1383 135.757L81.452 133.85C81.4741 133.822 81.49 133.791 81.4987 133.757C81.5073 133.723 81.5086 133.687 81.5024 133.653C81.4963 133.618 81.4827 133.585 81.4627 133.556C81.4427 133.527 81.4167 133.502 81.3863 133.483L60.5907 124.438C59.4391 123.876 58.2037 123.494 56.9299 123.307L45.0192 122.778C45.0192 122.778 54.5434 122.253 66.1169 122.561C73.999 122.77 81.4958 123.273 85.4631 123.572C86.3944 123.612 87.32 123.411 88.146 122.99C88.9719 122.569 89.6689 121.942 90.1661 121.174L93.9539 115.563C93.979 115.531 93.9968 115.493 94.0063 115.453C94.0157 115.413 94.0165 115.372 94.0087 115.332C94.0009 115.292 93.9846 115.254 93.9608 115.22C93.9371 115.187 93.9064 115.158 93.8707 115.137L67.6145 101.47Z" fill="white"/>
<path d="M156.888 115.149C154.961 107.572 147.963 101.521 133.565 101.521C110.243 101.521 96.423 117.069 96.6332 127.121C96.7339 131.93 100.355 135.851 106.039 135.851C108.588 135.851 111.425 134.861 111.425 133.009C97.8856 133.009 112.813 106.249 134.607 106.249C144.916 106.24 149.675 113.494 149.675 120.534C149.675 131.333 136.666 141.176 121.922 141.479C130.386 130.769 138.426 117.099 141.189 112.252C141.293 112.069 141.344 111.862 141.337 111.653C141.329 111.444 141.264 111.241 141.147 111.065C141.03 110.89 140.866 110.749 140.673 110.657C140.479 110.565 140.264 110.527 140.05 110.545C126.016 111.877 119.855 126.575 105.102 154.492C105.041 154.608 105.014 154.738 105.027 154.867C105.039 154.997 105.089 155.12 105.171 155.223C105.253 155.325 105.364 155.402 105.49 155.445C105.616 155.488 105.752 155.495 105.882 155.465C109.726 154.612 114.451 150.345 119.211 144.777C122.017 145.402 124.889 145.704 127.768 145.677C134.691 145.677 140.466 144.073 145.034 141.411C146.457 134.87 149.557 127.147 153.704 120.086C154.492 118.776 155.561 117.027 156.888 115.149Z" fill="white"/>
<path d="M224.258 142.857C224.258 142.857 221.118 150.878 217.536 150.878C213.158 150.878 223.509 132.574 223.509 130.214C223.509 129.323 223.286 128.538 217.764 128.538C217.033 128.538 216.477 128.567 216.477 128.567C216.477 128.567 206.769 150.076 198.085 150.076C196.189 150.076 194.03 148.693 191.876 147.712C194.284 146.089 196.571 144.303 198.72 142.366C209.847 132.591 211.857 131.674 211.857 128.606H195.34C192.178 128.606 190.234 130.931 189.919 134.003C189.907 134.116 189.92 134.231 189.956 134.339C189.993 134.447 190.052 134.547 190.131 134.631C190.209 134.715 190.305 134.783 190.411 134.829C190.518 134.875 190.634 134.899 190.75 134.899H200.178C198.186 136.405 194.284 139.366 190.107 142.579L189.905 142.737L189.073 143.373C186.573 145.242 180.088 149.773 175.91 149.773C172.149 149.773 170.936 148.096 171.137 145.805C172.128 146.459 173.295 146.812 174.491 146.82C182.001 146.82 186.814 138.756 186.98 133.282C187.063 130.505 184.655 128.627 181.726 128.627C176.361 128.627 171.768 132.181 168.86 136.734C166.202 139.998 159.056 148.322 155.447 148.322C152.886 148.322 153.258 144.286 155.189 138.85C163.47 137.062 179.654 123.362 179.654 110.263C179.654 106.607 177.903 104.717 175.297 104.717C171.514 104.717 167.555 107.038 163.829 110.69C161.755 112.738 159.872 114.961 158.202 117.333C153.262 124.309 149.273 133.03 147.508 140.373C147.202 141.653 146.961 142.903 146.795 144.09C145.862 150.771 147.307 155.61 152.343 155.61C157.024 155.61 162.13 149.815 165.72 144.704C164.845 150.532 167.152 155.712 174.329 155.712C176.079 155.65 177.786 155.174 179.304 154.325L179.79 155.102C179.862 155.198 179.953 155.278 180.059 155.338C180.164 155.397 180.282 155.434 180.403 155.447C180.524 155.46 180.647 155.448 180.763 155.412C180.879 155.376 180.986 155.317 181.077 155.238C186.17 151.07 190.597 155.712 196.246 155.712C201.308 155.712 206.221 150.852 210.149 145.387C208.652 151.556 209.352 155.844 214.857 155.844C222.174 155.844 226.378 146.295 226.378 144.67C226.378 143.044 224.258 142.857 224.258 142.857ZM175.043 110.541C177.509 110.541 174.842 117.321 169.718 124.109C165.865 129.229 160.698 133.705 156.906 134.464C161.661 123.686 170.384 110.541 175.043 110.541ZM181.007 133.013C183.775 133.013 176.396 144.759 171.61 143.68C173.344 138.893 178.936 133.013 181.007 133.013Z" fill="white"/>
<path d="M225.046 115.533C222.857 114.59 220.041 116.066 218.802 118.827C217.563 121.587 218.364 124.587 220.554 125.53C222.743 126.472 225.559 124.996 226.798 122.236C228.037 119.475 227.253 116.48 225.046 115.533Z" fill="#D91378"/>
</svg>
